/* XPM */
static char *af83bfc2fef54c07d5ef0153a46ff80fvG9y5ia7GOc1m3u0[] = {
/* columns rows colors chars-per-pixel */
"64 64 179 2 ",
"   c #3A4333",
".  c #3F473B",
"X  c #3F493A",
"o  c #404636",
"O  c #414739",
"+  c #444B3D",
"@  c #4A4E3E",
"#  c #4D503C",
"$  c #464D41",
"%  c #494F42",
"&  c #514F42",
"*  c #465144",
"=  c #4C5344",
"-  c #4F5947",
";  c #4D554A",
":  c #4E584B",
">  c #515546",
",  c #545946",
"<  c #585947",
"1  c #51564A",
"2  c #58564B",
"3  c #545A4C",
"4  c #5A5E4E",
"5  c #565D52",
"6  c #595E52",
"7  c #555E5D",
"8  c #595F58",
"9  c #56614F",
"0  c #5C614E",
"q  c #576054",
"w  c #5C6254",
"e  c #576058",
"r  c #5E6559",
"t  c #5F695B",
"y  c #61634F",
"u  c #626554",
"i  c #646957",
"p  c #62665A",
"a  c #6A665A",
"s  c #646A5C",
"d  c #696D5D",
"f  c #67705F",
"g  c #6B715F",
"h  c #70705D",
"j  c #5C6861",
"k  c #656C62",
"l  c #6A6E62",
"z  c #6B6E68",
"x  c #677063",
"c  c #6C7264",
"v  c #6D746A",
"b  c #6E796A",
"n  c #727465",
"m  c #757966",
"M  c #72766A",
"N  c #747A6C",
"B  c #7A7C6D",
"V  c #6E7570",
"C  c #6F7970",
"Z  c #767770",
"A  c #757C71",
"S  c #7A7E72",
"D  c #787F78",
"F  c #817F6F",
"G  c #77806E",
"H  c #7D826F",
"J  c #778173",
"K  c #7C8274",
"L  c #7D847A",
"P  c #7F897B",
"I  c #828575",
"U  c #858875",
"Y  c #82867A",
"T  c #89877E",
"R  c #848A7C",
"E  c #8A8D7D",
"W  c #918D7F",
"Q  c #87907E",
"!  c #8C917E",
"~  c #90937E",
"^  c #868C82",
"/  c #8A8E82",
"(  c #8B8F89",
")  c #879182",
"_  c #8C9284",
"`  c #8F9987",
"'  c #879089",
"]  c #8D9489",
"[  c #8D998B",
"{  c #929484",
"}  c #9A9684",
"|  c #939986",
" . c #92968A",
".. c #949A8C",
"X. c #9A9D8D",
"o. c #848B91",
"O. c #8F9891",
"+. c #8F989A",
"@. c #959D92",
"#. c #999E91",
"$. c #A09D8F",
"%. c #96A08E",
"&. c #9BA18E",
"*. c #96A194",
"=. c #9CA294",
"-. c #9DA49A",
";. c #9EA999",
":. c #A2A595",
">. c #A1A696",
",. c #A5A795",
"<. c #A3A896",
"1. c #A7AA97",
"2. c #A8AB97",
"3. c #A2A698",
"4. c #A2A699",
"5. c #A3A99A",
"6. c #A4AB98",
"7. c #A4AA9C",
"8. c #A0AC9F",
"9. c #A6AD9D",
"0. c #ABAD9A",
"q. c #ADAD9B",
"w. c #A8AB9C",
"e. c #AAAD9D",
"r. c #ACAF9D",
"t. c #AAB19E",
"y. c #ADB19E",
"u. c #B1B29F",
"i. c #9DAAA1",
"p. c #A0A7A0",
"a. c #A4ACA2",
"s. c #AAAEA2",
"d. c #ABAEA9",
"f. c #A7B0A3",
"g. c #AEB3A0",
"h. c #A9B1A5",
"j. c #A9B3A7",
"k. c #ACB2A4",
"l. c #ADB4A7",
"z. c #AFB8A7",
"x. c #ACB3A9",
"c. c #ADB4A9",
"v. c #AFB8A9",
"b. c #B2B5A5",
"n. c #B1B8A7",
"m. c #B4BAA7",
"M. c #B2B6AA",
"N. c #B2B7AA",
"B. c #B4B9A8",
"V. c #B5BAAC",
"C. c #BABDAD",
"Z. c #B8BEAD",
"A. c #B5BCB2",
"S. c #B4BFB4",
"D. c #BABEB1",
"F. c #BDC1AE",
"G. c #B7C1B5",
"H. c #BBC1B3",
"J. c #B8C2B7",
"K. c #BCC2B4",
"L. c #BEC4B9",
"P. c #C1C6B5",
"I. c #C2C9B7",
"U. c #C0C5BA",
"Y. c #C2CABD",
"T. c #C4CABC",
"R. c #CCCBBF",
"E. c #C9CEBE",
"W. c #C3CAC0",
"Q. c #C6CAC0",
"!. c #CACDC2",
"~. c #CBD1C3",
"^. c #CED3C8",
"/. c #CED3CE",
"(. c #D2D6CA",
"). c #D2D9CB",
"_. c #D9D9CC",
"`. c #DADED2",
"'. c #E2E4D3",
/* pixels */
"x k K Y M 6 r p 6 1 q k p r p 4 r t 5 1 = % = v 5 q 1 3 S S A x r 5 r R N P v q ; 1 6 w q v v S N d S ^ k c B q p M ..R s i S M ",
"m 3 B H.>.#.=.B.q.w.=.g.J.q A 3 4 , q >..._ P = = q K L ..v v s d n u =.-.| q p 3 c.X.q.Y.c d c K n k W./.).Z.!.=.k.k.h.Y 1 c I ",
"i 4 &._ U Y R { X...=.l.S.^ w p r u { =.Y _ _ _ ; - q P ..x.v v A v ..*.>.u s c _ =.,.! M K q y u s R.=.-.N.&.e...{ ,.5._ E M c ",
"s R H Q m M N N U ..J N.X.=.x q s ] ..! K K N K I r @ ; K ..-.r s 9.-.^ r q 9 X.>.` E _ J _ B.d i R X.y.5.0.y.m.>.E &.r...K g.m ",
"l / 6.U X.K n K n I _ =.8.c q 1 k c | _ P m r M R d + + 3 L ^ c s ..=.i , r Q / / Y _ R _ Y 9.N E S M =.6.0.1.4.X.E E  .K >.X.N ",
"q R  .#.X.M A #.{ S =.N.S r R p s ..*...T R R X.S A E 6 5 3 N 1 ; ..x 0 u #.^ _ s ..N R =.@.a.r ] T.d A K T.w.E K K { Y ..>.R 6 ",
", W / Y Q s A T N.I M d s _ K x q -.-.a.@.B K M K .._ ] ; i ; 1 ; 3 w i 6.T R R X...U | 5.#.b.c s =.{ d b X.W B E R ~ E { &.B d ",
", =.^ ] R _ E 7.m.6.d 6 B Y K 3 6 =.=.@.] S _ ..P E I _ R 1 6 , 1 6 k 4.w.@.S X./ X.&.K.e.-.h.v c s.6.>.4 l s.#..._ S m _ | ..u ",
"5 B R S _ #.| V.b.p @ 4 c 4.{ w d -.L ] @.c ] ..e.6.@.b.r s 3 = q 4 N / >.X.! _ / S b.Z.B.b.5.a c X.R r u d n r.$.U { #.R m { s ",
", I B ../ 7.w.=.k = @ u g =.l.i > R [ ] |  .K P Y R K R q N N s ; = q 3 U ,.5.{ U { Y.T.V.h.e.U s D.>.y u n h n b.,.} U U I >.d ",
"p R S _ V._  .s p 3 w w #.s. .3 1 K R =.1.E ] _  .] X._ S M M v 6 d z X.R >.B w.k.7.N.V.=.4._ p 2  .I I l u p p l | | 7.{ Y 4.c ",
"l I K ;.X._ s 9 + @ q u s S ^ $ r M c K I B ] L =.] ! n A A N N s 0 A d ~ E K 1.N.B.0.5.k.g.;.q I a.N w d > p d u s T #.=.=.=.N ",
"3 u I ..#.d 1 >.| ....s s u -.s u I R ....>.X.K J ;.{ u x T _ r u n d E N { 1.=.b.B.0.l.l.P.e.c p { > u , / F $.1.m M Z.g.6.K 1 ",
"k ; K x.c r S / 2._ =.6.p 3 w M u u / B...| E ..S <.M i L / w k , r N p N c ! R Z.B.X.B.g.c.d d c 4 u p 7./ R B Y U u S I.N.M r ",
"i 2 0 q r K ( _ E _ I I E 3 6 s S n S | N >.=.4.K s i M _ c k 5 ; p u ..E a i #.R R E X...S S Y Y R a ..w.X.]  . .e.{ s s A v s ",
"g B M r r s M N N B c 6 s k p r s N p N I ] E I a w w M B z r S d s M n N S M c s k n 6 i s ^ Y k p l k u d s k N Y S k p p z M ",
"l s l d 1 r c x M ^ S s s k r t q l Y E _ ../ B 4 , U B M d 5 u n u d M n S c M v c c ] N N v A v q = N r l i M L R n c p x v A ",
"= 4 n E n T Q ....=._ >.Z.L K x s 1 c i M N K K d 6.e.7.X.s u c 9 = q l.`.'.F.N N c M N M B N s t x v s.Y { =.e.7.| ..>.X.s = c ",
"= = v K B { X.T.k...R ....=.N v l s n g B E U d g.e.X.X.| >.2 4 @ 3 =.=.T.T.e._ 1 n , c c c s p r p _ =.7.!.b.u.$.=.=.R X.{ d 2 ",
"6 1 S L R Y ..s.e.=.m R =.@.@.N Y s r K N i B d e.6.F.X.{ ! e.6 4 .._ ] K.F.6.7.u u c d r k A ] k l.N.s.v.h.7./ =._ ../ ^ K i , ",
"= M l A x ..P  .=.4.B ^ p._ ..M  .d n K v I Z m X.b.P.>.L ..( 5 % @. .R 6.s.L _ 6 0 = n 5 k k M 6 ....A.N._  .v E P / ^ Y J n & ",
"= = c R B R @.] 7.9.Y X.4.....A Y i n r 6 o.K m | Q H { U L M % y N _ / 7.-.#...s 4 r p ; w i u 1 ..h.a.@.=.9.@.^ *.-.K -.K *   ",
"w 1 B R ] R Y X.-._ Y |  ._ ..i p i K c i x S n X.{ q.>.{ ....4 i s..._ =.6._ M 1 s 3 r $ u r c 3 k.L N P R ..^ ) ^ Y Y A { d 5 ",
"; 1 r R R L =.R Y =.^ X._ | =., , s B B S r B d s E.P.{ U E -.u , v Q A ..=.-.d s B u 1 6 4 q q i _ Y ^ / _ R Y @.Y S I Y d s u ",
"q s 3 ; B ..c._ _ -.R #.^ R m = 3 w M (.`.H.F.m p c b._ B 6.s.u c ] E R H...N - '  .X.E .., ; r d / X.=.-.@.X.K *.^ =.#.2 n n q ",
"M n r r A / P v _ / =.X.v S L v 6 c 7.-.7.t....._ x 6 w.s.>.e.p q N.s.>.=.d r / P ..{ Y ..5.5 k 5 k ..=...L ..c ^ #.4.d p q M P ",
"Y ^ c 5 q v T g -.#.6...! r l 3 S H.t.b.-.=.N K _ B i i _ ~  .q 6  .K i 0 c N | { ^ =.w._ h.>.5 l w K =.K >.R v M #.v c s r ..b ",
"M ] ..r q ; u K L R R K d i s x K b.t.l.] R R =..._ B 6 3 K X.M M >.c i s i K n.7.] A X...=.E 4 5 p v L N L ( _ x : 6 r 3 R =.c ",
"c  .....r r r i E s M B 5 x P M r #._ P ' _ ^ Z.0.| _ s * r ..r x I = 9 A ] R b.] ^ v M L { H y m r N 5 3 q p S v r 6 $ #.s.7.N ",
". s ^ ..7.c 5 R N s B w u p r ; * = G Q s _ I R R U U M i d K i B m c B =.R ^ E _ R L Y ] _ 0 d r 3 5 q r r x X s ; % ^ R K v v ",
"r q 1 c K _ M k L S l c l M r w 1 p 5 Y v =.+.k / E n M N k s N B u p ..{ 4./ B =.../ c _ s p r 5 = 5 S / B n c s 6 N S K M v k ",
"% r 1 + + k s s B s M s 3 d q 1 u d 3 c l 4 c L I 3 x s M K n s - s x K L K s K  .i r c ; r * 6 , 1 # c d n u s = = 3 5 q c p % ",
"q = +   $ 5 1 6 6 u s 6 w i 4 > y m g B q d n n L w a q m U n p 3 r s L B N H B  .B u q 9 p q s 5 = 5 k s s s s p q 5 3 = c , p ",
"$ : . R _ ^ 6 w u 4 w u 4 r w ; < n g ..R R >.b.;.9.4.5.E h u r c r v { u.P.E.=.s.h.R X.=.k 3 M ; ; $ M A v A A p s N 9.7.r q % ",
"$ ; Y K ^ r u 4 q 1 : x K 3 n g 3 4 X.| B T ..] &.X. .| M , 3 d s r u p / n.{ B 4.P R ..7. .3 r ; r 3 c n v w s p 1 p ....K 6 + ",
"* Y R K r 5 A v S.L A.r s s l s r #.w.U I ) p.] ..>.{ i s k >.r 6 Z.s r d ] T X.I R @.-.] k.l.x v r 5 v s 4.v U.v r r 3 =. .L k ",
"r ..@.3 6 k M i.k.7.] 9.s r w d , X.=.K I z.] ..=.K w 5 l L { 4 n { ..K u u K X._ 9.*.] @.<.=., r K w N l.7.R =.L u 1 w p M ] 3 ",
"q S 1 , , 6 @.=.K ] _ U R r K M 4 =.=.{ m I ] p.G 3 5 s ..5.I s q E ` =...v r ..e.n.v.s._ X...3 9 c l { >._ Y @.>.L i q 3 k P 3 ",
"r s 3 3 c / S -./ Y c / K V.K u i B .._ K | e.] r r r A H ..I 1 3 _ B =.X.Y l v g.G.%. .=.4.E i c L =.D.B @...I / K P l ; N 6 6 ",
"l w = s _ A @.^ L K Y S Y R X.s w c c m B Q ] l s b _ ) ] E X.M r g...4.X.>.K N K h.Y  ._ M a c r R X.s.-.T #./ T Y K ] x p x k ",
"r r A K  .R / A t A  .P P P R i , 6 i d i , k p ^ ] K M K 4.5.r r #.R {  .7.>.p l l N N v n k M u { K  .7.@.a.5.R { / @.-.h.t r ",
"6 R K B N L _ v N N R Y C v 4.c t 4 n k w q q N i.R ..P N ] R w q ] ..R E l._ / i 5 P N u s N c u Y Y @.=.X.=.N.I I T K { ] @.q ",
"l v  .R ] ] =...B K P ^ S s.b.K a x = d s , = s #.=.R _ L N c @ w E ^ Y I =.=.>.L 3 x c B B v s u .._ R =.=.=.h.R _ S X.V.e.N s ",
"4 c *.=.=.=.L.7.=.P M K R X.6.d N g 1 w 4 u g K h.] _ ]  . .M 4 6 K K ] K ] | _ n c c x c c n s 5 K R ^ B E X.R X.K _ -.=.V._ s ",
"3 M =.-.4.4.N.x.4.-.@.{ _  .s.e. .v v B 0 w s p  .| R S Y  .@.w q k M _ N.b.9.#.s s M v K M s x 5 s M @.K K #.R K K _ #.#._  .5 ",
"= + N X.@.J.(.b.b.b.=._ K N I S w = q 3 @ r 1 1 3 5.m R _ _ p x 3 * M ..Z.6.=.4 s w c s v p u w j A U U B  .0.7.{ / ..X.I u 3 1 ",
"; ; t A ..t.N.g.H c I K v r M q % 3 3 5 $ , s 3 , , n K I c r r 6 3 * ..e.E m q l c a n i 5 5 , c M 0 N i B R n B E g u S = p p ",
"X 1 6 q R M Y ..B 3 r p 3 : 6 3 3 3 c V p r s d r 4 % r 6 q 3 r 6 q q 3 M c c d d r s s ; s q 3 l l k d , p u 1 % q ; 4 u 3 # i ",
"@ 5 5 k r c S N ; 3 = 2 1 3 r ; = D M P v 1 ; ; d 3 3 @ r * r 5 s N x t > , 3 c d r u s k u l s r s p N 1 = I 3 , = 6 B 1 B d w ",
"= $ 3 M p P _ =.] 9.E ..A + 5 6 6 k 6 c ^ Y K #.V.B $ ; ; ; q 9 4 v r = r i c ..{ ..9.N.7.4 d R A c M P.| X.V._ e.B E c L u v = ",
"s r U.l.K s  .-.A.L p K 1 ; 8 ; 3 p ] / _ n K M =.Y s r 1 5 ; q 3 > 5 q = ; ^ a.^ ^ s.p...#.v k I k P L S ..#.s.Y I M z D.P.A s ",
"s Y.s.V.7.P N _ s s q l p c / 6 3 _ K ^ N B L R R ] R ; . 1 6 1 o = ; 1 , _ ] R N K X.` ^ K #.A n 4.w 3 , u u c B 6 c P  .X.V.M ",
"M k.~.S.k.@.S S d r l r 5 h.A.i k P | ] x N R _ R ..] ' 1 9 r 3 q r 3 ; ..=._ L I =.=.X.-.s.k.N S N.Z.i N d s u 0 s >.{ ] / =.x ",
"N K.L.D.h.7.#.K q ; x 5 v S.7.p u ..^ ^ ] M H R ,.....P q ; 1 1 ; = ; ; c N @.K _ #.] 1.-.K.V.S _ X.#.N s 4 0 r d .. .c. . .=.g ",
"^ ~.J.V.L.L.A.N.M p 5 k a.G.p.A r R A ..h.P K R _ N A P v c ; 3 q = p l S M A N ^ A ] #.a.S.s...Y A.^.X.k u u M 4.S.x.g.5.E L./ ",
"/ T.s.N.V.V.D.Y.A.L 3 M A ] d.r s @.L [ a.^ ( L v M N A v r q r ; $ = K ..^ R K [ -.p.O.@.A.A. .M 5.@.6 s u K ..<.Q.!.V.N.5.V.#.",
"#._.F.6.>.s.=.p.Y...K s q X./ 3 % ] P ^ f.-.*.K P ] ^ _ 5 5 : % q : 1 ; M k A v L -.9.^ p.J.k.A A p.7.A u n =.=.X.K.x.t.=.V.~.@.",
"c ).B.=.>. ._ X.).X.^ l 5 r =.- $ R P P  ._ b v [ _ A q = $ + r 3 r 1 ; = s @.R N N _ L ..@...A N a.k B s @.H...P V.7.=.4.>.H.5 ",
"N A.=.#.7...R #.=.@.L @.r 3 k 5 3 ] ' @.' v L [ =.A x ; q e K + r L 3 . , d K ..| / ..K @.@.5.M A N K c 7.l.c.@.7.U.H.r.s.P.l.g ",
"B =.K R R R M c R 4.@.A ] i s r ; -.L v ^ ) *.@.] ) q 3 = @.N ; + =.| * r 5 Y / =.;.=._ K ..5.N p ] c 7.c.9.! Y >.a.^ -...X._ x ",
"r B ] P @.A K  ._ / R Y -.-.r q ; K  .] ..=...A K $ 1 ; ..^ 3 = % ^ k ..6 M s N L c.V.=.] ../ A c l R A.A.s.e._ s.p.c.A.] ] K s ",
"3 r R .._ ..K A S s M P Y ] 1 = , 1 B L _ v M q + ; ; s X.v % 5 1 c Y =.>.t 5 3 s N ..A _ _ s A p d 7.v.@.K X...4.=...A.f.K 3 3 ",
"= M k s E K ..] r r s l N r 4 3 1 q 5 = k 3 3 r : -.R P N 3 r v c i i _ 7.4.A.l r p * M x x K c p A M V.J.E ,.s.s.=.t...Y d f 6 ",
"l k r w c Y M r = O 1 p 3 s r s 6 p : = + @ * % A v 8 q 6 p 5 l p l s N M R =.^ 7 = 1 l s v s s c r v P E c c S s c N M r i N 5 "
};
