/* XPM */
static char *_18142b11cc04a30805a6644adb1b029sEduYxP0IXhdnocr[] = {
/* columns rows colors chars-per-pixel */
"64 64 206 2 ",
"   c #0D0F09",
".  c #0F120C",
"X  c #13140D",
"o  c #19140E",
"O  c #16180F",
"+  c #1A190F",
"@  c #151612",
"#  c #191613",
"$  c #171913",
"%  c #1B1B15",
"&  c #18181A",
"*  c #1E1D19",
"=  c #221D15",
"-  c #2A1E16",
";  c #211F1A",
":  c #1F2116",
">  c #1F201A",
",  c #242215",
"<  c #262917",
"1  c #23231C",
"2  c #2A251D",
"3  c #25291D",
"4  c #2A291E",
"5  c #31261C",
"6  c #312B1E",
"7  c #2C301B",
"8  c #36371E",
"9  c #1B1A24",
"0  c #221E27",
"q  c #1F2129",
"w  c #262521",
"e  c #292622",
"r  c #272822",
"t  c #2C2B24",
"y  c #24242B",
"u  c #2F272E",
"i  c #2E2C2A",
"p  c #322E25",
"a  c #3A2E24",
"s  c #312E2A",
"d  c #2F3127",
"f  c #343126",
"g  c #3A3326",
"h  c #373821",
"j  c #3D3A26",
"k  c #34332C",
"l  c #3A352C",
"z  c #35382F",
"x  c #3C3A2D",
"c  c #2E2D35",
"v  c #322D36",
"b  c #363431",
"n  c #393631",
"m  c #3C3B33",
"M  c #3E3D38",
"N  c #422F23",
"B  c #41362C",
"V  c #433A2D",
"C  c #493D2C",
"Z  c #413D35",
"A  c #493D31",
"S  c #423F39",
"D  c #3D4036",
"F  c #3F4039",
"G  c #42422F",
"H  c #434135",
"J  c #4B4333",
"K  c #494936",
"L  c #44433B",
"P  c #4A453C",
"I  c #444B39",
"U  c #4B4A3D",
"Y  c #534436",
"T  c #524B3D",
"R  c #4A523D",
"E  c #58503D",
"W  c #605A3C",
"Q  c #4D643D",
"!  c #3D3D43",
"~  c #464540",
"^  c #4B4742",
"/  c #464A44",
"(  c #4D4B43",
")  c #46484B",
"_  c #524D43",
"`  c #594E41",
"'  c #504F48",
"]  c #4F5145",
"[  c #535144",
"{  c #5B5544",
"}  c #595B45",
"|  c #54534B",
" . c #5A564C",
".. c #5B594D",
"X. c #5D5C53",
"o. c #595858",
"O. c #695645",
"+. c #645B4D",
"@. c #615E54",
"#. c #685D50",
"$. c #615E59",
"%. c #5E6151",
"&. c #62624E",
"*. c #656F4E",
"=. c #646154",
"-. c #686757",
";. c #64635B",
":. c #69655C",
">. c #6C6A5E",
",. c #726758",
"<. c #726C5E",
"1. c #7C705C",
"2. c #686763",
"3. c #6D6C63",
"4. c #726D64",
"5. c #716F69",
"6. c #6E7063",
"7. c #737166",
"8. c #7B7366",
"9. c #75736B",
"0. c #7A766D",
"q. c #77786E",
"w. c #7C7A6D",
"e. c #767476",
"r. c #797771",
"t. c #7D7B73",
"y. c #7F7D79",
"u. c #827968",
"i. c #827C6E",
"p. c #817E75",
"a. c #887E72",
"s. c #817F79",
"d. c #7C8161",
"f. c #7F817C",
"g. c #87886E",
"h. c #848175",
"j. c #8A8376",
"k. c #888977",
"l. c #85837B",
"z. c #89867C",
"x. c #8B897E",
"c. c #91877E",
"v. c #928C7E",
"b. c #99927E",
"n. c #7F7F87",
"m. c #827E84",
"M. c #868581",
"N. c #898781",
"B. c #8C8A83",
"V. c #8C8C8B",
"C. c #938782",
"Z. c #928E84",
"A. c #988F86",
"S. c #918F88",
"D. c #949186",
"F. c #9B9386",
"G. c #9F9F87",
"H. c #95938B",
"J. c #9A968C",
"K. c #97998A",
"L. c #9C9A8D",
"P. c #8E8D94",
"I. c #928F99",
"U. c #959594",
"Y. c #9A9791",
"T. c #9D9B92",
"R. c #9A989A",
"E. c #A49989",
"W. c #A29C8D",
"Q. c #A29E93",
"!. c #A59F96",
"~. c #9FA094",
"^. c #A4A48F",
"/. c #A4A394",
"(. c #AAA495",
"). c #A4A49A",
"_. c #A9A69A",
"`. c #A9AA98",
"'. c #AAAA9C",
"]. c #B3AA96",
"[. c #B4AD9D",
"{. c #BAAC98",
"}. c #ADB19E",
"|. c #BAB297",
" X c #B9B19D",
".X c #9EA0A3",
"XX c #A4A4A5",
"oX c #ACACA2",
"OX c #B2ADA2",
"+X c #AFB2A3",
"@X c #B3B2A3",
"#X c #BAB5A3",
"$X c #B5B9A4",
"%X c #BBBCA6",
"&X c #B4B5AA",
"*X c #B8B7AA",
"=X c #B7B8AA",
"-X c #BBBCAB",
";X c #ACACB3",
":X c #BDBCB2",
">X c #BDBAB9",
",X c #C1BDB1",
"<X c #BCC0AE",
"1X c #BCC0B1",
"2X c #BBBCC4",
"3X c #BCBCC8",
/* pixels */
"i f g n t % r 1 * % : O , , r 1 r 1 $ + > 1 1 t 1 1 t t 3 r t f r e 1 D M ( ] 1 ; 1 x 1 % % , f m t 2 2 t d n m z ( >.>.t b m f ",
"Z t h 2X$XG./.@X}.$X/.G./.7 f , 4 j , v.Q.j.F., < 4 -.i.w.< 4 1 , g 1 k.w.w.p = = (.h.$X].8 , 6 B 8 , %X1X<X-X%X$X@X$X<X'.1 y n ",
"s k &XJ.J.D.z.7.B.D.J.J.oX&X1 t i e z.z.r.s.0.h.* * % X.9.9.f n k s S.S.9.r 1 1 5.h.B.t.t.t.e t w r *Xr.t.B.z.H.B.!.T.Y.B.).y k ",
"t &XD.z.l.B.l.4.Z.z.B.OXJ.B.( 1 4 q.4.<.j.y.4.3.B.1 * ; X.5.z.t 1 s.s.;.* % * t.l.t.t.9.7.w.z.2 4 ( l.(.r.B.J.T.Y.H.Y.).D.N.2Xm ",
"Z L.D.z.H.B.h.w.h.l.F.B.z.g t 1 1 X.w.t.3.9.r.0.l.z.% 1 * t.h.t k l.l.4 % @ 3.3.p.l.h.l.3.4.8.s  .x z h.E./.J._.Q.D.J.J.t.B.XXL ",
"; Z.z.B.p.q.0.p.L.J.z.B.n l z.; ; s.@.3.:.p.s.p.l.s.0.1 e 1  .* * ;.t 1 ; s.y.4.$.9.0.s.9.0.l.t  .T.s m B.|._.H.L.D.L.z.z.J.V.* ",
"1 h.z.Z.q.3.4.9.H.K.w.k 4 N.N.; 1 H.p.p.a.0.l.9.3.l.9.Y.1 r * * * r l t z.h.l.0.7.z.l.p.B.z.Z.e f L.D.s m '.%XH.S.z.D.x.B.z.M.1 ",
"1 h.j.D.h.p.s.9.L.L.f 1 >.N.l.% r V.p.0.C.h.B.l.h.N.r.oXp.1 > * % t l x.J.j.z.z.l.B.C.S.H.C.Z.l ( /.D.w.s P $XD.x.q.z.h.S.H.V.t ",
"1 v.j.D.l.z.z.B.H.n t f t D.B.1 r H.s.r.h.z.N.h.s.z.N.+Xt r 1 r 1 t z P B.p.h.p.B.H./.J.&X).Q.L [ %XH.m V f U  XJ.z.B.L.B.B.U.t ",
"1 h.z.p.(.+X}./.Z 2 $ 1 f p.J.1 % B.l.h.H.z.s.s.z.B.S.T.k r r 1 1 1 k s z.v.x.h.B.J.@XT.T.Q.A.T k #XF.V f f 6 ( -X`.$XY.(.Y..Xn ",
"4 j.a.L.[.).T.Z 4 1 = 1 -.Z.z.; % l.h.l.l.z.N.x.z.S.B.V.X.s d t t z Z q.z.j.B.D.B.z.J.S.B.C.Z.4 6 E.Z.>.s g 4 4 L _.W.J.D.F.R.4 ",
"2 i.x.(.x.D.m 2 ; % 1 = *  .L.* % l.l.h.h.x.H.H.Q.H.z.4.s Z Z  .( n U k j.v.(.B.B.L.h.h.l.t.z.5 6 F...; 5 % # p * L Q.-XY.Y.z.* ",
"+ T `.Z.B.Z 4 D./.D.D.1 ; e g.1 s 0.Y.L.W.L.Q.D.D.-XS.L L | D.@.H 9.( O.{ {.].D.J.D.x.l.J.F.J.a N u.a 2 2 z.A.@X/.p P OX%XJ.| % ",
"> = +.D.n 1 X.B.D.x.x.!.1 = 1 4 s l h.'.Z.x.Z.S.Q.H._ Z ( j.f k 4 s X.L U O.F.Z.v.x.Z.x.H.s.l C V - a 4 Q.L.B.B.Z. .4 H &XD.! 6 ",
"1 = k k 4 X.z.w.w.l.h.D.z.4 t t m _ L h.:.z.B.H.H.t i Z >.k p t 1 t p h.3.A x 8...;.9.h.D.T J T H C p 8.j.x.l.D.B.H.6.p m H L n ",
"1 p 2 = d k ( @.( =.+. .Z p k t 4 L U T P  .-.>.k i s  .L m f ' s l k m m V l l t n b 1 g Z [ I m V a C K k [ L ( ( L t 1 s / I ",
"1 1 # 1 1 1 t ~ l P f H p k k r t n &.} &.-.=.x f t .. .T J t 1 e s f n Z f g J n L ( [ L ( Z T J g V Y m k Z m ( P Z S t e v k ",
"1 o 4 0.4.p.h.z.:.B.l.Y._.m t t z k R I z k s s s  XS.J.D.p = 1 1 e 1 B.!. XQ.V H n f t t l P H k C P OXC.j.z.x.Z.h.j.p.C.k & g ",
"+ o c.9.:.9.t.B.0.9.p.B.w.B.f m m K I I k W Z 4 #X'.(.Q.D.h.= * * 1 z.z.J.L.L.h.t l e t k l t i p k Y.D.B.L.z.D.S.l.j.4.h.S.s % ",
"@ * y.p.2.p.N.M.z.s.s.r.5.t.l.L L k m H f K J p /.E.%Xz.z.4.D.* 1 L.z.z.#XJ.D. Xs 4 1 f f s f  .s Y.Q.B.y.t.h.h.B.l.h.N.j.B.q o ",
"* L t.r.2.z.B.N.N.M.p.r.9.p.y.S ( k x m k G j 1 i.Q.[.l.z.u.a.1 * A.B.z.#XJ.D.b.> 1 1 k t i k H s S.Y.B.s.s.N.z.S.N.z.B.z.H.2., ",
"X s 8.z.$.B.z.A.x.B.i.h.p.N.N.L | e e 1 * H z l T.S.z.y.0.0.s.1 1 x.z.0.Q.>X/.%Xf * 1 1 1 e e k k B.B.T.s.l.T.z.Z.l.z.l.L.B.y O ",
"* s q.t.3.p.9.B.h.y.x.H.p.h.S.~ ( t t 1 e f t 1 x.x./.OXZ.z.z.4 t h.z.h.D.(.@XB.* * t k 1 t r n n ).S.J.h.z.z.l.p.t.q.B.x.B.y > ",
"* e 1 s.9.s.r.B.s.z.z.B.s.h.N.t f t l t x 1 =.1 > E.Z.p.D.x.D.4 t h.t.s.c.W.z.g t ' t r 1 k i b M ).D.B.p.y.r.r.B.B.S.B.S.e q t ",
"s k ; 1 t.z.l.h.a.h.p.B.M.p.0.k k 4 A #X:XY.[.` t t Q.F.x.x.S.1 t s.B.H.!.j.s 2 @.B.J.B.V.t k k | s.!.l.h.w.r.t.l.z.B.x.1 e ! t ",
"_ ( % k n y.y.t.z.l.B.T.z.;.U Z 1 l S.S.B.#XD.J.7.s r Y.l.D.L.t t D.z.z.S.1 t =.j.'.l.Y.).).k f n [ w.S.z.0.s.r.y.j.z.m m 1 ) L ",
"@.T.s w * s h.;.p.p.x._.7.H f t l (.D.H.'./.Z.x.B.<.f 1 i.F.J.e k B.z.X.1 g  .J.W.l.S.!././.*X1 t t =.h.q.l.l.t.3.p.s 1 S k P.k ",
"( B.p.* % O 1 :.3.r.x.z.S m k L P F.[.[.L.D.p._.S.x. .s 4 ;.D.k l p.X.r J U s.W.S.H.L.%X+XoXJ.| b n +...5.0.l.9.;.% X * * N.P.n ",
"S h.y.Z.X % * k | 4 f | 4 m L k r >.4.r.p.B.y.Y.H.p.B. .s n t.l x | t m @.l.T.T.z.(.8.w.J.H.3.x U g _ l F k n >.d $ @ X Z.l.y.] ",
"e i 4.p.x.% > k 1 f L P k b t t t 1 X.z.z.z.h.z.B.l.x.s.m l t p p s l L B.Q.z.D.H.B.t.h.D.p.r L m ; L M k s k 1 t @ X r.p.~ y | ",
"w 3 :  .| @.t k s P [ L m t s t 1 1 t 7.>.q.l.y.J.h.;.:.4.k Z n m k n p.w.N.S.h.q.9.X. .7.l f f > % t X.%.m n t t 1 :.:.X.* y t ",
"* < = @ @ % X ; k n Z k 1 ; r * * 1 $ t S k ~ | | n L ^ P n Z n l m k ( L ( ( P U t r i e t t ; % 1 % * * 1 % * % @ % 1 1 e c 1 ",
"r < % # # X % * s m m s 1 % ; * % 1 r Z 1 ' ..( ;.n ( U k l m l l k l Z ( _ P H _ L n i s l r r % $ O 1 * % % * * * $ 1 * t 0 t ",
"1 1 # h.h.( % % * i t f t * * * % 2 % x.j.S.D.B.T.!.T.#Xt.k m l n n n N.J.J.).H.J.H.B.B.B.f t 1 % + @ ( L n f t 1 * X.h.t.r 0 t ",
"# $ 5.t.5.* 1 $ w * k n k 4 r A 2 = 0.i.p.S.z.N.D.S.z.z.k s k l n f k t 7.Z.S.B.B.z.S.B.z.N.t s 1 1 t n n m t t r r 1 t.r.N.y 4 ",
"% z.r.0.; * * t oX* S.f t 1 p l s D.j.B.9.z.L.H.Z.W.N.k l ' -Xk n OXU k t p.B.z.N.B.B.N.B.h.M.t t m t n L B.z _.U t t w 0.H.R.t ",
"; p.y.t 1 > s J.B.s.t.J.t ; s m l T.j.p.z._.t.L.Q.0.n n P t.(.| [ z.S.@.e 1 q.D.l.p.z.s.l.h.p.1 1 K s m D.H.B./.B.m r t t l.P.t ",
"* q.* * * t l.z.h.p.7.S.Q.1 k L k _.{.[.j.Z.t.(.q.t H U h.C.J.L m l.Q.T.>.k e x.B.9.p.D.z.z.l.t 1 ] B Z.x.h.B.S.S.l.k 1 % r n.t ",
"w , 1 % n 9.y.t.y.;.;./.H.N.t s ` ` !.W.L.B.L.0.l k S p.z.z.L.k t B.D.B.).+.1 t q.D.L.N.j.M.| 1 1 L ^.{.l.0.h.0.s.l.l.m * t c d ",
"e 1 ; m h.9.l.:.3.@.h.q.p.t.J.1 1 g H w.7.h.>.s t L B.l.B.N.H.k k H.z.).z.H.U t f K.8.:.<.P t t % K.D.L.Z.w.s.q.9.z.z.0.n e i t ",
"% % 9.7.h.h.s.9.;.7.q.q.9.l.H.L 4 2 < $ 4 1 1 1 L s.J.S.s.z.B.1 r l.h.B.Y.Z.x.n t w 2 p $ 1 f , % z.h.l.r.q.7.3.r.9.r.3.3.h.9 1 ",
"@ p.q.r.y.7.q.3.:.3.q.z.h.l.D.P L s V l 4 t 2 ( z.z.l.0.p.B.D.s 1 l.B.p.s.J.l.B.L % Z t 1 1 t % @ :.q.p.t.q.w.l.3.4.:.t.s.y.m.O ",
"@ t p.s.3.q.t.s.>.3.7.l.3.p.h.&. .n t t e O O k 0.h.a.y.y.4.l.* * t.z.L.B.N.@XD.k @ @ 1 1 ; t % % h.>.w.t.4.p.h.h.9.3.z.z.N.b > ",
"X ( B.s.z.h.D.z.x.:.3.N.4.h.x.;.:.z r t % * p H s.B.l.y.B.y.j.1 % :.9.t.B.B.r.z.n @ * $ * % k * O v.w.9.>.h.z.z.y.9.q.S.0.B.o.* ",
"* H 0.p.l.l.h.l.p.0.>.p.B.H.q.*.d.Q g B % * x t p.h.S.l.z.N.;.% # L r.h.%XT.B.s.1 e > 4 4 1 g 3 o +.a.0.3.w.c.l.h.0.s.S.j.w.e., ",
"1 X P 7.z.B.B.B.N.z.9.r.9...{ ( U t t 4 % % % * * z.l.y.l.3.1 2 $ O @.L._.Q.J.% ; 1 % 1 2 6 < 4 1 8 #.h.;.4.h.E.h.z.l.t.9.m u 1 ",
"% X X ( 9.p.l.z.@.@.' X./ ; L m % p 3 R % % t @ * % 4.@.| % % $ O % 1 w.x.h.1 $ % m * 1 x 2 < * 1 C 1 ..L U @.1...( | Z P @ v % ",
"X + o % s f M L s * @ % . r s * 1 1  .( S k s Z % 1 ; * * 1 * 1 % * t t n t % % f e ; f = 4 , ; * z p 6 O $ * * > $ * * * @ 9 * ",
"@ + = % t s L m > 1 . $ # r 1 * % X.%.%.L n * m H % t $ t 1 @ 1 t T L m > # % Z m b t f % ; t < s k V K 1 % $ $ * * * 1 $ e 9 1 ",
"* % 2 ( 1 Z  .l.l.l.H.H. .* r 1 * D 1 0.h.N.p.B.s.L @ $ $ e 1 1 * ; n $ % . m x.N.z.Y.H.J.e g H f k 4 v.^.H.L.H.T.w.%.1 ( i z 3 ",
"z f '.H.Z ; ' ;.h.q.=.:.% 1 1 1 1 i B.h.B.r.y.h.y.7.n @ @ $ > $ * 1 X X X 1 3.y.B.B.M.l.p.z.t x P t f g p.w.k.D.q.3.t L +X>X/ D ",
"r ,X_.J.S.m 1 L r 1 1 1 r t B.1 1 t.y.0.7.;.3.0.7.0.:.* X X   @ @ O X O t q.X.7.t.7.5.t.;.3.B.V s D.f 4 1 t 4 t X.1 k Y.T.).3XU ",
"k W.-XY.J.H.n r 1 * 1 r 1 T.).r * s.t.p.3.9.q.y.z.y.3.y.1 X % # @ 1 X 1 x.h.:.p.z.B.N.t.r.p.B.L L Q.).k 4 1 x f t n H.B.-XB.;XL ",
"b oXY.T.T.B.z.m   # 1 t 1 B.J.* * 0.h.p.3.r.7.7.l.y.r.7.1 % % * * * X # ;.$.h.p.t.t.t.9.y.h.p.k E (.B.f f , t g n B.l.L.V.H.2X( ",
"~ ).).H.J.'.'.J.Z X ; 1 p.Y.D.r * y.B.Z.h.3.w.3.0.3.3.7.X.1 * 1 1 $ $ ~ 3.;.:.3.9.r.r.9.z.z.p.L L ).!.:.* t f H ~.-X}.L.z.).;X;.",
"$.Q.).H.J.~.oX+XoXZ X t t H.S.* * N.B.S.p.5.7.7.r.t.3.z.X.% ; * > ; * X.;.7.7.:.3.p.D.s.N.z.l.;.;.D.S.1 1 f P /.$X).oXJ.H.!.2Xt.",
"4.oXD.l.4.3.y.S.).).S * 1 z.S.% % D.B.B.B.s.l.;.:.6.3.6.n * 1 % 1 * @ t L :.X.X. .t.p.9.L.J.Z.n S L.s.s ( P :X@XY.J.J.H.).>X3X3.",
"L -XJ.J.S.9.h.x.-X).S.m $ k H.# % z.z.l.q.y.X.7.:.3.] b 1 % 1 @ * > @ % t m X.=.7.;.z.t.B.B.x.k k z.t m Z =X:XY.V.H.).oXR.).XX( ",
"w S.r.t.s.7.H.l.D.H.t.N.t * z % @ t.r.q.;.:.5.3.7.M n @ * * 7.% 1 S.@ X @ m L l.h.9.z.9.h.z.z.k m k ( P @X/.@Xx.D.L.T.'.Y.oXI.m ",
"S S.9.p.7.3.B.z.S.'.p.p.>.n 4 $ @ t.t.9.3.t.y.r.L L @ X $ x.7.> 1 B.z.X X @ P | B.p.z.p.q.l.j.s e =.L @X*X!.'.N.L.&X).-XoXT.P.m ",
"i X.s.w.z.H.B.!.t.z.p.p.p.H.1 # X | N.B.B.B.h.L t + @ $ B.z.L % * t.9.Q.O % * t L l.z.y.4.<.:.$ t f B.oX&XH.J.J.T.oXoXoXY.B.e.t ",
"r s ,.s.N.T.J.Y.j.7.9.D.y.<.& # = * [ q.r.r.~ t & # @ r.s.~ # # & w o.M.N.* % % e L w.;.>.@.- 2 2 f v.,X).(._.Y.J.A.J.H.H.f.i , ",
"% V g | w.7.3.0.T _ U [ { , = O O > % , S @ s ; * w.X.3.>.1 t < < % 1 6.t.t.x.1 % f o x , - 5 4 , f G j.j.h.h.z.z.j.D.0.B.k d 4 ",
"t m k n e M L L t # $ * k d 1 % & t 1 * @ # # * L k t 1 t 3 e k t > 1 Z L | -.X.% # X % 6 f : 1 f i 3 n k n n S k L P M i b S 1 "
};
