/* XPM */
static char *_6263821571a40e0c20251b307409ba6VJ15Xd1kJaBlgGND[] = {
/* columns rows colors chars-per-pixel */
"64 64 181 2 ",
"   c #1A0D06",
".  c #1B0E09",
"X  c #1D110A",
"o  c #210E05",
"O  c #210F09",
"+  c #241106",
"@  c #291306",
"#  c #24140B",
"$  c #2A160B",
"%  c #26180F",
"&  c #2C190D",
"*  c #321B0D",
"=  c #241611",
"-  c #2C1711",
";  c #261912",
":  c #2C1B12",
">  c #2B1E19",
",  c #321D13",
"<  c #2E2013",
"1  c #2D2219",
"2  c #342216",
"3  c #3A2416",
"4  c #3C2814",
"5  c #35231A",
"6  c #3A261B",
"7  c #3D291C",
"8  c #362620",
"9  c #3B2721",
"0  c #3D2B21",
"q  c #41261C",
"w  c #432C1D",
"e  c #492E1E",
"r  c #45311E",
"t  c #4A321E",
"y  c #51351F",
"u  c #432D22",
"i  c #492E22",
"p  c #422E28",
"a  c #453123",
"s  c #4B3424",
"d  c #473D27",
"f  c #4D3A25",
"g  c #463229",
"h  c #4C3429",
"j  c #4D3A2A",
"k  c #523524",
"l  c #543A25",
"z  c #5A3C26",
"x  c #52362A",
"c  c #593728",
"v  c #543B2B",
"b  c #5B3D2B",
"n  c #4D3730",
"m  c #4F3C30",
"M  c #553D31",
"N  c #5A3E31",
"B  c #613E2C",
"V  c #544026",
"C  c #5B4126",
"Z  c #55422C",
"A  c #5C432C",
"S  c #5D4A2C",
"D  c #564133",
"F  c #5D4333",
"G  c #5D4A33",
"H  c #5C4539",
"J  c #5D4A3A",
"K  c #604327",
"L  c #604827",
"P  c #62442C",
"I  c #69462D",
"U  c #644B2D",
"Y  c #69482F",
"T  c #6A4B2E",
"R  c #6D512E",
"E  c #71532E",
"W  c #604231",
"Q  c #634330",
"!  c #644230",
"~  c #614430",
"^  c #624632",
"/  c #614335",
"(  c #654436",
")  c #6A4632",
"_  c #654A32",
"`  c #644B33",
"'  c #664836",
"]  c #664D36",
"[  c #6A4931",
"{  c #694A32",
"}  c #6C4A33",
"|  c #6B4C33",
" . c #62453A",
".. c #664838",
"X. c #644D39",
"o. c #644C3A",
"O. c #6A4A38",
"+. c #694B3B",
"@. c #6B4D3A",
"#. c #714E34",
"$. c #714D36",
"%. c #794F35",
"&. c #714E3A",
"*. c #645135",
"=. c #6C5235",
"-. c #6B5837",
";. c #65533C",
":. c #6A513B",
">. c #6C533B",
",. c #6C503F",
"<. c #6D543C",
"1. c #6D593C",
"2. c #775137",
"3. c #735435",
"4. c #785535",
"5. c #745935",
"6. c #7A5A36",
"7. c #745139",
"8. c #73543B",
"9. c #75513C",
"0. c #75573D",
"q. c #75543E",
"w. c #79563B",
"e. c #745B3B",
"r. c #7D583D",
"t. c #7B5C3C",
"y. c #7C613D",
"u. c #644A40",
"i. c #664D41",
"p. c #6B4E41",
"a. c #704F40",
"s. c #655342",
"d. c #685241",
"f. c #6D5442",
"g. c #6E5943",
"h. c #66544C",
"j. c #6C564A",
"k. c #6C594B",
"l. c #725542",
"z. c #735443",
"x. c #795640",
"c. c #795545",
"v. c #745B43",
"b. c #7B5D43",
"n. c #7B5B45",
"m. c #7B5846",
"M. c #7B5E46",
"N. c #745B49",
"B. c #795A48",
"V. c #7B5E4A",
"C. c #735E52",
"Z. c #785F50",
"A. c #6F6145",
"S. c #7B6143",
"D. c #76614B",
"F. c #7B614B",
"G. c #776351",
"H. c #7B6453",
"J. c #835D3C",
"K. c #83623E",
"L. c #89643D",
"P. c #825F41",
"I. c #846344",
"U. c #8A6543",
"Y. c #83644A",
"T. c #8A6148",
"R. c #8B664D",
"E. c #85694E",
"W. c #8B694C",
"Q. c #926C4D",
"!. c #93724D",
"~. c #826552",
"^. c #866954",
"/. c #8C6C51",
"(. c #82695B",
"). c #8D6D5B",
"_. c #916B51",
"`. c #946E5B",
"'. c #8C7153",
"]. c #957559",
"[. c #99735B",
/* pixels */
"u 3 7 u h w a e i # x w i k k w k v f $ c h b x x F ' B c : u ( ) v W N 9. .5 F v ` { M.0.{ ,.F u F l b x A M.n.6 { b v t t N k ",
"u 7 u u a 7 s 7 w # f 7 b h u u c c s # c s j a x ^ ` b M , u M W ( ! ^ ( N 2 l P P 2.B.>.7.x.F u / b c h W 0.<., U z f s f v c ",
"h w u 6 9 i a a w . s 6 c k i w k k a + j c M a s F ` v b - 9 M F c N 9.^ f 2 W P T A T.n.f.r...0 N b a v l.] A , P A v v f A k ",
"a a a 6 a u a a 6   a 9 f k h u h a h + j c v x 6 v ` W h = 7 x M M c ^ ( j 2 { F P T P.n.u.{ +.u F a l v a.d.A , A A b s v M k ",
"a s a u u a f b 7 . u 6 9 a g x j h k # M s f x u h z / g # 6 u M v M ( j c 2 A C P } 7.+.$.F v w N s X.k F :.l 2 A v ^ a c F a ",
"h c s 7 a f A v 6   0 0 u h h u v c u @ v f l k c a A b k # 9 9 i c u c c s 4 A P P b A K T P n 6 A b j.( ^ v h 5 F z j a A v s ",
"c c h 0 k N u 6 6   u u 6 w a a v l 7 X P U s l h u P | f . u 5 a a e 2 2 f 2 f A v C P P J F v 6 b b { { j.M.v 2 A F z l F F l ",
"@ & : : & , @ @ @ + X # # & - - & $ # # $ & & $ $ & $ @ & $ + @ @ # * @ $ + # $ @ $ $ $ $ @ # $ $ $ * $ * * & * @ # @ # $ @ @ @ ",
"Y.b.Y.t.K.t.K.t.e.t.>.t.e.1.*.3.@.` ] 4.3.=.U 3.| 7.` | T S S *.>.*.e.K.U 7.*.6.7.=.;.:.{ A F G ' >.t.S.t.R.b.v.Y.S.M.D.D.Y.v.W.",
"t.y.e.I.e.g.v.e.e.5.e.| T V l A ' A =.^ ] { T { } =.U S A V Z S e.| w.] =.4.4.7.8.| =.^ F A v.g.U.e.R.R.Y.W.[.`.E.S.D.~./.Y.W.1.",
"=.4.6.:.X.` G ] K =.] S S =.l.` =.t.A ^ z K ` A C C P D A L ] U ] | S T $.2.U | =.3.| ;.;.5.=.v.` U.t.^.Y.E.I._.~.D.Y.t.g.Y.:.;.",
"] ` ] ] X.7.w.] G S R =.*.=.3.U ] U :.6.^ ^ z z A v z f f t s A A S A T ] W 3.A S K K ^ M.b.L.t.M.Y.Q.W.[.R.Q.Y.D.I.y.b.I.l.t.3.",
"` X.X.w.] X.^ U A ` U | { f l P ] Z F ^ A D A l D H P v F A A v C z A { ^ ( { ` ^ &.9.w.t.P.U.K.L.b.v.Q.Y.R.Y.t.e.I.7.*.=.U *.] ",
"` A M v ` A A f A A k z l l l l z v v A W F D v c l c l l z f l l b A ` U K F A } P { } U { $.} { 7.&.] T 8.w.*.7.] | P A U A ^ ",
"6 w u 7 w w 7 u 7 7 7 7 7 e 6 w 7 6 7 5 6 2 5 6 2 3 2 2 2 3 2 2 6 5 3 4 2 2 2 w 7 4 w w e e e t w 7 u w e 7 u h e e e w e u e e ",
"g.H.D.s.C.h.N.D.k.g.1.1.g.v.D.e.e.S.e.F.:.-.v.b.e.f.v.>.e.v.f.t.-.v.M.e.S.<.M.l.N.N.Y.Y.Y.W.Y.S.N.g.v.;.V.G.H.V.M.<.v.Y.v.g.Z.F.",
"P ' ] ' ( ` G ` =.| ] R ` *.=.U T ] P F } P A { z K P P ^ F ] } } ^ S ` P } A A P { 3.&.| w.0.] 7.=.>.G 0.w.*.>.7.P ) ] U | +.( ",
"N A F ..' A ^ F A T A W } A K A { A ` &.W A A A } ` ^ { ` z l k b K P W A P ' | P $.W w.7.{ { ( U *.0.@.Z A &.` { =.A S ' W  .b ",
" .N F b N F A ( b P A Z F | A A P b ( F A / { A b 2.A A P C A P K P P A v K T z P P P P W { K } ^ ^ =.>.F ' P A b P z Z H F P b ",
"F ^ b F b P v l s s b b j F b v b v v v v b v v s a s k s l b l l b A A A b b P A A v P { c P ) F F P A W F V P A j f v j b b b ",
"s b v v l a s b s a f z a h v j h M v v f a w i e 3 4 w w e w t l v b b c z c A z A b b h P A P A W b A S S s k t u s l f v h c ",
"a a s k s t 7 7 t 7 7 a u a i u u x u a a e 6 7 4 7 6 w c f f l z b k k s t e e s w 7 6 w s e e e s k t l f f s l f a 0 t a a u ",
": - > = - , : , # X # # # & # # # O   . & & & $ # $ # $ + X # @ $ @ $ * & # + # # $ $ $ @ X + + . + # # # @ $ # #   # @ # $ $ # ",
"s g H Z G d d A 6 # 6 2 7 u 7 7 6 9 5 - f f v V V f l V f $ 5 7 a a a l l f ; 6 7 7 f l v Z Z S   5 k z f h l t w : f Z ` Z V V ",
"f z S U Z A K A s = 5 7 u a 6 u u a 7 & V f V L U 4.S G V @ 6 f x a v P s c - r t f f d U 3.S d X s z ] V C A a s 2 V Z S >.S A ",
"A S =.8.*.=.t.` v : u k x r u x l s a , ` S E 5.U.e.R K.v & 0 F c v W b F ^ , f s V U >.G y.M.` # s ^ =.*.3.| j A w S -.<.-.I.1.",
"S =.y.*.*.X.f.N.b > a k g c h u b z k , A 3.8.I.t.t.3.6.A # k z b W k ) K v : P V f V *.<.y.-.e.# f 3.| t.b.` V x u ` 1.F.t.e.;.",
"} 3.*.=.g.l.U.t.A 2 a a c b a h l s a , 7.} J.t.I.8.3.L.^ & a A b W z T P z , z f A V U I.S.5.*.# b 3.4.| 4.T b v a R e.K.y.5.e.",
"k *.1.J.b.:.M.t.M , u f B v u x l a a , ` @.=.3.I.c.w.U.| $ a @.W x k B } ) , s l z W =.-.8.t.L * l T L.{ | W c f e 6.5.L.3.e.b.",
"l S *.<.3.8.g.b.P 2 e h c c a s z a h : P } Y.' I.4.3.b.3.$ s { b a h b P A , l l t ^ A 3.5.I.v & A ` w.R P P l s 7 w.e.5.=.t.1.",
"l ] 5.*.*.6.t.l.3.6 h a k b k u h f a : | 3.J.0.w.3.0.U.b + a 2.P a g l W P , b b k v 3.:.I.e.z - c 9.] U T b v P a S e.K K.L.e.",
"K U 6.*.G :.6.K.b.2 h u c f h g f k c : U A w.J.U | w.P.b o z @.b a a B %.F , A b z } t.8.8.e.A , C T | 0.W W h b 7 A J.U e.D.e.",
"U G -.-.3.=.=.t.7.2 v h j j u h b v s : 3.3.S w.w.F r.3.A @ t A ' a a v ..=.& z A A { X.Z t.U.K : l I U | ] C h f e =.<.` -.t.5.",
"] ^ ] w.| e.1.^ 3.5 M k b f a a v F w , $.V :.d.$.S >.{ } + e v N h a ( ^ A 2 M b F A G G =.=.v & C P } ^ A F u b a ] f.G 6.e.;.",
"1.F K l.P t.I.U <.5 j a a M h s x j t , ..^ 8.X.` $.n.| P o a z v a a b A f.5 v j v A F >.*.e.A @ s v | ^ A b u v 0 G e.:.f.b.1.",
"2.P ^ l.P e.*.{ ^ 2 l u v a f b l j 0 ,  .:.=.P H ] 4.} b + s b f a a b J D 2 f j D A U T L -.` @ z P A ! A v a A 7 U 8.*.<.8.J.",
"] $.@.S T 8.=.{ Z , a s v s a h l v 0 $ P ..F ^ ^ D } 3.v + l z z w h c b ( 2 a v f L U Z } t.A # z b P } b b f C 7 S 3.3.| @.' ",
"^ K | S | 8.1.C f : f h a u k h h l a $ P M F A ` | X.0.z o u c l w h a B v 2 s k A Z T | T U K # k z b l z b v t 4 A 3.` ^ ` A ",
"U A F A ` ] ] z h , l u a a l h v v 0 $ M D M v ^ A f.@.z o w u a s 0 u c c 2 l C Z j A U =.A | # s v s k b l x w 2 L K A 3.P F ",
"b A v { P ] ' v s > c a a u a c b N 0 $ F v s D F s >.0.K O 5 a s c 7 6 c b 2 f z V f A ] *.^ ^ + a b l k h g l f 2 z G ^ P b z ",
"f b U ] D A ^ z A : a f a w w a b v 9 & x c b v v b | ] A . 7 k t u 7 a v P , s f t w Z G S A v o t t v a b l z v < z U S C z a ",
": 2 7 6 6 u 6 5 2 # 2 ; > ; > 2 2 7 , = 6 0 0 5 6 7 7 6 5   , 5 2 > > 6 5 5 $ : > - 5 2 6 6 6 6   > 2 2 2 3 4 2 6 + 6 6 3 2 7 , ",
"b.b.Y.f.<.j.Y.>.S.f.5.=.8.3.| U $.) p.7...X.8.>.:.^ U =.0.@.' P ` | A A U G =.T ` *.G G f.g.e.v.N.G ` f.-.k.e.-.1.e.e.*.Y.e.e.I.",
"F.l.] X.X.@.>.<.4.8.e.8.0.>.=.w.X.&.) ( ( ' ^ F { @.] { l.' { ` ( X.3.*.} | 3.8.=.7.:.>.1.*.<.>.g.v.<.] @.` w.>.| 7.=.*.=.=.` =.",
"3.8.0.w.^ G l.:.,.v.,.1.3.n.4.w.X.J 7.} ( F ] 0.^ } l.@.X.X.X.X.f.H { ^ F 6.| ` =.J.b.e.e.v.8.b.t.v.v.<.f.f.:.:.:.b.v.=.t.T.} } ",
"b.Y.f.M.;.j.f.,.] T 7.] 2.| | ` ' 3.W @.A F { ] F A @.J @.J ' X.7.,.:.l.e.] 7.0.,.w.n.f.8.8.b.l.I.N.,.b.b.>.*.t.t.t.b.I.K.t.U.I.",
"v.' =.1.j.8.8.f.G >.,.f.=.] A W F Z A ( b ^ I F A W D X.^ X.X.' +.j.i...v ` T ^ P ' F | { ,.| &.X.d.:.f.f.*.8.l.b.0.<.b.*.=.e.t.",
"3.J ^ ;.J Z F ..7.` v ' ^ ^ { M b b W v A A b b W b v b N A l m A P A A P v v ( A F A } ( v A b ) { P ^ @.@.' p.>.| =.$.*.=.@.=.",
"] j S V ^ c l s v f s k a a c a h a a e a i u h g a a a f h t w a a s f x s s f l f h x x b c c c c c c l h z b b A U P A ` } U ",
"; , & ; : - - , : : : & : - - - & , $ $ * # & # $ : : , > : , = # & & & * & : - : & : : : & : : - , , , 2 2 2 3 , , , , : & & # ",
"` X.U J i.I.N.f.F.g.k.k.D.[.F.t.t.1.S.H.^./.(.(.!./.(.'.].'.F.E.A.g.j.A.v.v.g.d.:.:.J <.j.g.v.v.X.@.X.d.v.V.:.8.N.f.s.s.X.j.l.1.",
"| ( G G :.] A W M F ] X.>.*.:.0.*.V.t.F.~.E.W.W.).S.Y.~.~.e.F.t.e.J 1.e.1.;.f.] s.X.*.=.>.:.@.0.] f.1.@.1.X.@.3.X.X.] ^ ] X.F w.",
"v D M ] ^ +.2.@.X.@.>.=.| G ] 7.0.f.M.I.F.^.Y.).H.^.I.Y.D.t.1.t.:.] :.` J ` ^ A ^ >.U ^ J +.@.' &...@.@.( ' } b P U P v b b F F ",
"H A F M A F @.} @.{ | $.0.F <.] 1.3.f.M.5.v.N.v.n.F.8.b.=.^ *.Z X.A F v G ` ^ ^ ' ' N { F @.A b ( F @.F ^ A { W }  .D F J F J M ",
"N F D F ( v M ^ ^ F A A ( b A v G T ;.d.f.v.N.v.:.D ` @.d.J +.F F A V j z A v F v F F W A N N P A P z P P A v b f x h c x h v v ",
"b ! v v c N ! M b v A F b b N A c c F M F W { F ' ^ ^ A A v h v A v v s k f v j F ^ ' M b b F P b v b l b A f v c h a g x c a x ",
"a u u u a a u u q 6 a N M N b F D D D ( ^ F A b c c M v c f h h 0 h a g 0 h u a g a g d v l v v s h s c A b v s s a f f s f a a ",
"X # # # # + X + X # & = # ; = = # = + X # # $ # $ # $ # + X # = # # # # # # X . # @ @ @ $ @ @ o . + # $ $ @ # + . + # + + # @ # ",
"u 7 7 5 6 3 6 a -   2 1 2 7 5 6 i 0 5   c x a a > 5 i g 9   2 > 2 6 1 : > 5 = a u a s a j l a 6 % 7 0 f f j v a X a 7 6 a h f w ",
"u i w 6 u a j u < X 3 6 5 6 u i p u 5 + i v u u 9 0 v v h X 2 , 0 u 5 : > 9 - s t s l v v l f w : a e F a j v j % f a a s s s s ",
"a c a a c h v v 7 X a w 7 a h h h h h # a v x h 9 / +.^ v & 7 7 a a a 8 8 v , A M P T >.>.| ^ f 2 b z ( h +.D.G 2 Z j P z b P z ",
"c c a 5 f l f s a + a a u u x h b x f $ W v x j i P &.( b : w f c j u u s h > F +.P T n.@.` ` h 6 b F @.h @.v.F 5 P z l z y P z ",
"k h 0 6 a f f s a + a u x h h s f x a $ b b c N h ! P P l , w v N N N h  .8 2 T F P P 6.r.f.P w 5 v Z ^ b p.F.^ 2 A b P k k P b ",
"h h 7 6 a a s s a X v u c c i u k b a @ A v v h k ( ) b b , i / ! N ! x ( h 5 P z F } w.t.$.@.q 6 b { v b F j.l.5 P A b k k T b "
};
